# xmcd
#
# Track frame offsets:
#	150
#	20241
#	44237
#	60249
#	74181
#	90463
#	108680
#	124945
#	142271
#	157109
#	171287
#	188973
#	206538
#	225706
#	246084
#	261954
#
# Disc length: 3731 seconds
#
# Revision: 2
# Processed by: cddbd v1.5.2PL0 Copyright (c) Steve Scherf et al.
# Submitted via: audiograbber 1.83.01
#
DISCID=000e9110
DTITLE=Lucero - Live In Atlanta Disc 1
DYEAR=2014
DGENRE=Country
TTITLE0=Can Get Us Out Of Here
TTITLE1=On My Way Downtown
TTITLE2=Nights Like These
TTITLE3=Sounds Of The City
TTITLE4=I'll Just Fall
TTITLE5=Union Pacific Line
TTITLE6=Sweet Little Thing
TTITLE7=Slow Dancing
TTITLE8=Women And Work
TTITLE9=Raising Hell
TTITLE10=Texas And Tennessee
TTITLE11=Breathless Love
TTITLE12=Goodbye Again
TTITLE13=Juniper
TTITLE14=Tonight Aint Gonna Be Good
TTITLE15=My Best Girl
EXTD=
EXTT0=
EXTT1=
EXTT2=
EXTT3=
EXTT4=
EXTT5=
EXTT6=
EXTT7=
EXTT8=
EXTT9=
EXTT10=
EXTT11=
EXTT12=
EXTT13=
EXTT14=
EXTT15=
PLAYORDER=
